<?xml version="1.0" encoding="utf-8"?>
<!-- Generator: Adobe Illustrator 27.9.0, SVG Export Plug-In . SVG Version: 6.00 Build 0)  -->
<svg version="1.1" id="Vrstva_3" xmlns="http://www.w3.org/2000/svg" xmlns:xlink="http://www.w3.org/1999/xlink" x="0px" y="0px"
	 viewBox="0 0 841.89 841.89" style="enable-background:new 0 0 841.89 841.89;" xml:space="preserve">
<style type="text/css">
	.st0{fill:#FFFFFF;}
</style>
<polygon class="st0" points="841.89,135.89 802.77,12.53 667.21,12.41 667.46,11.97 420.95,12.19 174.43,11.97 174.68,12.41 
	39.12,12.53 0,135.89 0,135.89 0,135.89 2.65,137.08 150.41,203.01 150.41,203.02 215.67,232.15 159.89,135.8 244.47,135.96 
	244.5,136 266.37,136 359.02,136 359.21,264.87 359.26,296.9 262.71,462.5 104.47,733.91 191.25,829.92 212.46,814.7 382.45,692.55 
	270.36,692.98 418.91,434.21 570.07,691.82 458.74,692.25 516.81,733.91 516.82,733.91 648.28,828.23 650.64,829.92 650.64,829.92 
	650.64,829.92 737.42,733.91 579.18,462.5 482.96,297.46 482.96,136 575.52,136 597.39,136 597.42,135.96 682,135.8 626.22,232.15 
	691.48,203.02 691.48,203.01 839.24,137.08 841.89,135.89 841.89,135.89 "/>
</svg>
